<?xml version="1.0" standalone="no"?>
<!DOCTYPE svg PUBLIC "-//W3C//DTD SVG 20010904//EN"
 "http://www.w3.org/TR/2001/REC-SVG-20010904/DTD/svg10.dtd">
<svg version="1.0" xmlns="http://www.w3.org/2000/svg"
 width="500.000000pt" height="500.000000pt" viewBox="0 0 500.000000 500.000000"
 preserveAspectRatio="xMidYMid meet">
<metadata>
Created by potrace 1.11, written by Peter Selinger 2001-2013
</metadata>
<g transform="translate(0.000000,500.000000) scale(0.100000,-0.100000)"
fill="#000000" stroke="none">
<path d="M1117 4402 c-16 -3 -17 -136 -17 -1960 l0 -1957 173 0 172 0 5 1800
5 1800 59 0 59 0 46 -100 c25 -56 60 -132 78 -170 104 -228 158 -346 180 -395
45 -95 89 -191 143 -310 87 -190 250 -546 310 -675 15 -33 38 -82 50 -110 12
-27 42 -92 66 -143 24 -51 44 -95 44 -97 0 -1 18 -41 39 -87 78 -168 114 -245
156 -338 23 -52 60 -131 80 -175 21 -44 50 -107 65 -140 15 -33 40 -87 55
-120 15 -33 41 -89 57 -125 155 -339 196 -428 237 -515 l48 -100 338 0 338 0
-1 1930 c0 1062 -1 1944 -1 1960 l-1 30 -165 -1 c-91 0 -168 -4 -172 -7 -3 -4
-7 -816 -7 -1804 l-1 -1797 -58 1 c-32 0 -62 4 -67 9 -5 5 -148 315 -318 689
-170 374 -322 707 -337 740 -15 33 -35 78 -45 100 -17 40 -46 103 -100 220
-15 33 -40 87 -55 120 -15 33 -94 206 -175 385 -81 179 -162 357 -180 395 -18
39 -49 108 -70 155 -21 47 -54 119 -73 160 -19 41 -44 95 -55 120 -225 498
-231 510 -239 511 -24 3 -652 3 -666 1z"/>
</g>
</svg>
